<svg xmlns="http://www.w3.org/2000/svg" width="105.273" height="100" viewBox="0 0 105.273 100"><g transform="translate(-5)"><path d="M20.215,0h87.931a3.934,3.934,0,0,1,3.746,4.1V47.72a3.934,3.934,0,0,1-3.746,4.1H20.215a3.934,3.934,0,0,1-3.746-4.1V4.1A3.934,3.934,0,0,1,20.215,0Z" transform="translate(-6.234)" fill="#0dbdbd" fill-rule="evenodd"/><path d="M62.527,37.406H85.192a3.934,3.934,0,0,1,3.746,4.1V53.018a3.934,3.934,0,0,1-3.746,4.1H62.527a3.934,3.934,0,0,1-3.746-4.1V41.5A3.934,3.934,0,0,1,62.527,37.406Z" transform="translate(-32.695 -22.076)" fill="#f6f6f6" fill-rule="evenodd"/><path d="M152.152,38.281h22.653a3.934,3.934,0,0,1,3.746,4.1V53.893a3.934,3.934,0,0,1-3.746,4.1H152.152a3.934,3.934,0,0,1-3.746-4.1V42.379A3.934,3.934,0,0,1,152.152,38.281Z" transform="translate(-88.744 -22.592)" fill="#f6f6f6" fill-rule="evenodd"/><path d="M9,180.781H109.716v25.18H9Z" transform="translate(-1.563 -106.69)" fill="#0dbdbd" fill-rule="evenodd"/><path d="M9.6,76c32.09-10.017,64.12-9.8,96.093.02a4.593,4.593,0,0,1,3.084,4.056v31.4a3.086,3.086,0,0,1-3.09,3.079H9.59a3.086,3.086,0,0,1-3.09-3.079v-31.4A4.633,4.633,0,0,1,9.6,76Z" transform="translate(0 -40.47)" fill="#dceb5c" stroke="#000" stroke-width="3" fill-rule="evenodd"/><path d="M39.277,203.031h73.953a3.934,3.934,0,0,1,3.746,4.1v12.692H35.531V207.129A3.934,3.934,0,0,1,39.277,203.031Z" transform="translate(-18.155 -119.822)" fill="#fff" fill-rule="evenodd"/></g></svg>