<svg xmlns="http://www.w3.org/2000/svg" width="60.606" height="100" viewBox="0 0 60.606 100"><g transform="translate(0 -0.008)"><path d="M60.606,96.071a3.8,3.8,0,0,1-3.651,3.937H3.651A3.8,3.8,0,0,1,0,96.071V38.564a4.164,4.164,0,0,1,.411-1.81H.327L18.346.008H41.933L60.279,36.754h-.084a4.159,4.159,0,0,1,.411,1.81Z" fill="#0dbdbd" fill-rule="evenodd"/><path d="M57.148,107.663,34,143.252h3.276l23.216-35.589ZM28.424,122.821a9.372,9.372,0,0,0,7.2,2.752,9.754,9.754,0,0,0,7.027-2.623,8.427,8.427,0,0,0,2.744-6.319,8.741,8.741,0,0,0-2.632-6.242,9.46,9.46,0,0,0-7.139-2.727,9.349,9.349,0,0,0-7.2,2.765,8.741,8.741,0,0,0,0,12.393Zm4.192-11.743a3.242,3.242,0,0,1,6.006,0,11.811,11.811,0,0,1,1.084,5.54,11.952,11.952,0,0,1-1.07,5.528,3.306,3.306,0,0,1-3.017,2.032,3.418,3.418,0,0,1-2.906-1.851,10.83,10.83,0,0,1-1.181-5.708A11.806,11.806,0,0,1,32.616,111.078ZM51.829,140.59a9.781,9.781,0,0,0,7.027,2.61,9.755,9.755,0,0,0,7.027-2.623,8.457,8.457,0,0,0,2.744-6.345A8.7,8.7,0,0,0,66,128a9.484,9.484,0,0,0-7.139-2.713,9.348,9.348,0,0,0-7.2,2.765,8.848,8.848,0,0,0-2.576,6.177A8.442,8.442,0,0,0,51.829,140.59Zm4.024-11.876a3.237,3.237,0,0,1,6.006,0,14.735,14.735,0,0,1,.014,11.062,3.306,3.306,0,0,1-3.017,2.029,3.419,3.419,0,0,1-2.906-1.848,10.8,10.8,0,0,1-1.181-5.7A11.847,11.847,0,0,1,55.853,128.714Z" transform="translate(-16.411 -65.27)" fill="#fff" stroke="#000" stroke-width="3" fill-rule="evenodd"/><path d="M73.568,12.219A6.086,6.086,0,1,1,67.344,18.3,6.155,6.155,0,0,1,73.568,12.219Z" transform="translate(-42.757 -7.403)" fill="#fff" fill-rule="evenodd"/></g></svg>