<svg xmlns="http://www.w3.org/2000/svg" width="122.273" height="120" viewBox="0 0 122.273 120"><g transform="translate(-6 -6)"><path d="M67.136,16c28.242,0,51.136,22.386,51.136,50s-22.894,50-51.136,50S16,93.614,16,66,38.894,16,67.136,16Z" fill="#0dbdbd" stroke="#000" stroke-width="20" fill-rule="evenodd"/><path d="M116.875,104.619A10.538,10.538,0,0,1,119.8,119.5a11.206,11.206,0,0,1-15.352,2.523,10.539,10.539,0,0,1-2.921-14.884A11.2,11.2,0,0,1,116.875,104.619Z" transform="translate(-44.021 -46.717)" fill="#fff" fill-rule="evenodd"/><path d="M129.989,69.986,103,96.2l11.96,8.36Z" transform="translate(-45.806 -29.108)" fill="#fff" fill-rule="evenodd"/></g></svg>