<svg xmlns="http://www.w3.org/2000/svg" viewBox="0 0 377.983 321.102"><g transform="translate(-0.009)"><path d="M67,254H81.029V373.244H67Z" transform="translate(-14.78 -56.039)" fill="#212121" fill-rule="evenodd"/><path d="M35,164H49.029V353.388H35Z" transform="translate(-7.72 -36.183)" fill="#17a8a8" fill-rule="evenodd"/><path d="M403,7h14.029V126.244H403Z" transform="translate(-88.91 -1.544)" fill="#212121" fill-rule="evenodd"/><path d="M435,7h14.029V196.388H435Z" transform="translate(-95.97 -1.544)" fill="#17a8a8" fill-rule="evenodd"/><g transform="translate(0.009 29.627)"><path d="M14.149,94.136C40.671,34.628,110.76,63.08,92.757,121.09l-.9,2.53L13.253,96.666Z" transform="translate(-2.931 -43.126)" fill="#17a8a8" fill-rule="evenodd"/><path d="M80.561,55.523,87.414,57.9a3.519,3.519,0,0,1,2.246,4.48l-1.415,3.95a3.608,3.608,0,0,1-4.606,2.1l-6.852-2.376a3.518,3.518,0,0,1-2.247-4.479l1.416-3.95A3.607,3.607,0,0,1,80.561,55.523Z" transform="translate(-16.409 -41.831)" fill="#17a8a8" fill-rule="evenodd"/><path d="M78.267,46.138l7.2,2.495L60.923,117.1l-7.2-2.495Z" transform="translate(-11.861 -39.806)" fill="#17a8a8" fill-rule="evenodd"/><path d="M12.31,112.276l74.528,25.839c1.892.606,3.115,2.808,3.4,5.713a12.058,12.058,0,0,1-.176,3.97c-.478,2-4.634.464-6.582-.209Q46.195,134.641,8.927,121.716c-1.925-.684-5.206-1.783-4.512-3.6a14.353,14.353,0,0,1,1.867-3.265C7.9,112.655,10.425,111.573,12.31,112.276Z" transform="translate(-0.96 -54.351)" fill="#17a8a8" fill-rule="evenodd"/><path d="M1.543,118.415l90.11,31.242-1.534,4.279L.009,122.694Z" transform="translate(-0.009 -55.753)" fill="#17a8a8" fill-rule="evenodd"/><path d="M74.96,43.674c7.286-9.738,21.3-6.389,21.592,6.061.147,1.492-.178,1.777-.578,2.047L74.6,44.653Z" transform="translate(-16.467 -38.014)" fill="#17a8a8" fill-rule="evenodd"/><path d="M58.083,65.277a.587.587,0,0,1,.021.3,1.013,1.013,0,0,1-.13.33,2.037,2.037,0,0,1-.276.359,3.8,3.8,0,0,1-.419.379A11.961,11.961,0,0,1,54.4,68.181c-2.485,1.031-5.257,1.5-7.943,2.9S41,74.97,38.354,76.821A21.964,21.964,0,0,1,34.938,78.9a6.354,6.354,0,0,1-.636.249,3.087,3.087,0,0,1-.522.125,1.323,1.323,0,0,1-.4,0,.629.629,0,0,1-.082-.019.647.647,0,0,1-.075-.026.517.517,0,0,1-.126-.077.658.658,0,0,1-.178-.6,1.873,1.873,0,0,1,.037-.223c.018-.079.041-.163.07-.252a4.783,4.783,0,0,1,.243-.589,14.336,14.336,0,0,1,2.4-3.286,33.506,33.506,0,0,1,8.908-6.477A27.16,27.16,0,0,1,53.1,64.683a13.534,13.534,0,0,1,3.44-.119,5.079,5.079,0,0,1,.592.1,2.57,2.57,0,0,1,.457.154.845.845,0,0,1,.489.455Z" transform="translate(-7.267 -43.858)" fill="#ebeaea" fill-rule="evenodd"/><path d="M28.283,85.582c.729.442.363,2.333-.816,4.224s-2.726,3.068-3.454,2.626-.363-2.333.816-4.224S27.554,85.141,28.283,85.582Z" transform="translate(-5.222 -48.488)" fill="#ebeaea" fill-rule="evenodd"/></g><g transform="translate(286.042 196.395)"><path d="M446.471,304.414c-31.555-59.183-97.733-23.268-74.68,35.146q.558,1.268,1.115,2.538l74.68-35.147Q447.029,305.682,446.471,304.414Z" transform="translate(-367.013 -256.865)" fill="#17a8a8" fill-rule="evenodd"/><path d="M395.4,269.568l-6.508,3.091a3.721,3.721,0,0,0-1.79,4.845l1.756,3.96a3.494,3.494,0,0,0,4.717,1.754l6.508-3.091a3.722,3.722,0,0,0,1.791-4.845l-1.757-3.96A3.494,3.494,0,0,0,395.4,269.568Z" transform="translate(-371.376 -255.793)" fill="#17a8a8" fill-rule="evenodd"/><path d="M392.193,260.153,385.36,263.4,415.8,332.038l6.833-3.245Z" transform="translate(-371.061 -253.792)" fill="#17a8a8" fill-rule="evenodd"/><path d="M448.788,322.1,378.01,355.72c-1.8.8-2.8,3.195-2.81,6.23a13.188,13.188,0,0,0,.541,4.095c.655,2.022,4.594.054,6.443-.822q35.41-16.84,70.8-33.654c1.827-.886,4.946-2.326,4.1-4.146a15.045,15.045,0,0,0-2.136-3.208C453.155,322.09,450.575,321.2,448.788,322.1Z" transform="translate(-368.819 -267.382)" fill="#17a8a8" fill-rule="evenodd"/><path d="M458.326,327.337l-18.712,8.887-66.865,31.758,1.9,4.29,85.577-40.646Z" transform="translate(-368.278 -268.614)" fill="#17a8a8" fill-rule="evenodd"/><path d="M398.161,256.928c-8.056-9.414-21.509-4.655-20.638,8.264-.006,1.559.339,1.824.758,2.066l20.321-9.349Z" transform="translate(-369.323 -251.991)" fill="#17a8a8" fill-rule="evenodd"/><path d="M415.557,278.045a.642.642,0,0,0,.007.309,1.083,1.083,0,0,0,.158.331,2.1,2.1,0,0,0,.3.346,3.71,3.71,0,0,0,.446.354,11.6,11.6,0,0,0,2.974,1.327c2.536.839,5.3,1.065,8.067,2.275s5.71,3.523,8.484,5.2a21.339,21.339,0,0,0,3.546,1.835,5.9,5.9,0,0,0,.647.2,2.93,2.93,0,0,0,.524.082,1.262,1.262,0,0,0,.4-.036.739.739,0,0,0,.079-.027.543.543,0,0,0,.071-.035.51.51,0,0,0,.116-.09.707.707,0,0,0,.119-.64,1.985,1.985,0,0,0-.057-.228c-.025-.08-.055-.165-.092-.254a5.1,5.1,0,0,0-.294-.588,14.8,14.8,0,0,0-2.665-3.181,32.951,32.951,0,0,0-9.346-5.887,25.771,25.771,0,0,0-8.654-2.361,12.673,12.673,0,0,0-3.388.193,4.732,4.732,0,0,0-.572.163,2.47,2.47,0,0,0-.435.2.862.862,0,0,0-.438.517Z" transform="translate(-377.719 -257.495)" fill="#ebeaea" fill-rule="evenodd"/><path d="M452.307,295.87c-.674.524-.14,2.449,1.193,4.3s2.96,2.926,3.635,2.4.14-2.448-1.193-4.3S452.982,295.346,452.307,295.87Z" transform="translate(-385.767 -261.643)" fill="#ebeaea" fill-rule="evenodd"/></g><path d="M99.794,0H321.136a7.794,7.794,0,0,1,7.794,7.794V313.308a7.794,7.794,0,0,1-7.794,7.794H99.794A7.794,7.794,0,0,1,92,313.308V7.794A7.794,7.794,0,0,1,99.794,0Z" transform="translate(-20.296)" fill-rule="evenodd"/><path d="M111,23H319.093V285.649H111Z" transform="translate(-24.488 -5.074)" fill="#fff" fill-rule="evenodd"/><path d="M240.639,372c7.533,0,13.639,5.06,13.639,11.3s-6.106,11.3-13.639,11.3S227,389.542,227,383.3,233.106,372,240.639,372Z" transform="translate(-50.08 -82.073)" fill="#f3f351" fill-rule="evenodd"/><g transform="translate(131.567 33.205)"><path d="M235.362,300.937c24.259,0,43.925,4.668,43.925,10.424s-19.666,10.424-43.925,10.424-43.926-4.667-43.926-10.424S211.1,300.937,235.362,300.937Z" transform="translate(-173.801 -99.6)" fill="#0a4f4f" fill-rule="evenodd"/><path d="M229.144,42.607q.788-.007,1.574.015t1.569.069q1.565.1,3.12.3a47.669,47.669,0,0,1,6.166,1.224,53.121,53.121,0,0,1,11.942,4.852,66.9,66.9,0,0,1,21.118,18.865A76.7,76.7,0,0,1,287.8,95.252a68.939,68.939,0,0,1,2.139,14.489q.032.893.038,1.78t-.014,1.768q-.041,1.761-.189,3.489a50.255,50.255,0,0,1-1.031,6.742c-3.962,17.643-12.168,30.735-20.834,42.149a50.989,50.989,0,0,1-15.945,13.616,42.474,42.474,0,0,1-15.5,4.73q-1.4.148-2.837.207-.717.029-1.44.036t-1.454-.01c-15.849-.477-27.407-8.033-37.1-18.171-9.272-10.445-19.242-23.748-23.449-42.931q-.371-1.807-.643-3.637t-.443-3.677a66.047,66.047,0,0,1-.267-7.438,67.353,67.353,0,0,1,2-14.887,72.711,72.711,0,0,1,13.039-26.785c12.116-15.564,28.537-24.071,45.287-24.115Z" transform="translate(-168.809 -42.605)" fill="#64e6e6" fill-rule="evenodd"/><path d="M288.081,153.228l-116.161-.01L229.969,275.58Z" transform="translate(-169.495 -67.009)" fill="#64e6e6" fill-rule="evenodd"/><g transform="translate(29.594 34.479)"><path d="M237.688,86.844c17.07,0,30.908,15.811,30.908,35.315s-13.838,35.316-30.908,35.316-30.907-15.811-30.907-35.316S220.619,86.844,237.688,86.844Z" transform="translate(-206.781 -86.844)" fill="#f3f351" fill-rule="evenodd"/></g></g></g></svg>